<svg xmlns="http://www.w3.org/2000/svg" version="1.1" xmlns:xlink="http://www.w3.org/1999/xlink" xmlns:svgjs="http://svgjs.dev/svgjs" width="1500" height="1500" viewBox="0 0 1500 1500"><rect width="1500" height="1500" fill="#ffffff"></rect><g transform="matrix(0.6666666666666666,0,0,0.6666666666666666,249.39393939393938,510.5055414523979)"><svg viewBox="0 0 396 190" data-background-color="#ffffff" preserveAspectRatio="xMidYMid meet" height="719" width="1500" xmlns="http://www.w3.org/2000/svg" xmlns:xlink="http://www.w3.org/1999/xlink"><g id="tight-bounds" transform="matrix(1,0,0,1,0.2400000000000091,-0.06826052007426142)"><svg viewBox="0 0 395.52 190.13652104014852" height="190.13652104014852" width="395.52"><g><svg viewBox="0 0 418.11809517232706 200.99999999999997" height="190.13652104014852" width="395.52"><g><rect width="4.19968270806175" height="200.99999999999997" x="180.25438147512864" y="0" fill="#3d3d3d" opacity="1" stroke-width="0" stroke="transparent" fill-opacity="1" class="rect-qz-0" data-fill-palette-color="primary" rx="1%" id="qz-0" data-palette-color="#3d3d3d"></rect></g><g transform="matrix(1,0,0,1,195.44799797392795,0.4999999999999858)"><svg viewBox="0 0 222.6700971983991 200" height="200" width="222.6700971983991"><g id="textblocktransform"><svg viewBox="0 0 222.6700971983991 200" height="200" width="222.6700971983991" id="textblock"><g><svg viewBox="0 0 222.6700971983991 200" height="200" width="222.6700971983991"><g transform="matrix(1,0,0,1,0,0)"><svg width="222.6700971983991" viewBox="1.1 -40.35 195.9 171.88" height="200" data-palette-color="#3d3d3d"><svg></svg><svg></svg><svg></svg><svg></svg><g class="wordmark-text-0" data-fill-palette-color="primary" id="text-0"><path d="M8.63 0.35v0c-2.3 0-3.957-0.513-4.97-1.54-1.007-1.027-1.56-2.713-1.66-5.06v0c-0.013-1.033-0.02-1.977-0.02-2.83 0-0.847 0.007-1.7 0.02-2.56 0.013-0.86 0.04-1.807 0.08-2.84v0h3.17c-0.067 1.487-0.1 2.963-0.1 4.43 0 1.467 0.033 2.9 0.1 4.3v0c0.053 1.133 0.337 1.957 0.85 2.47 0.52 0.52 1.353 0.78 2.5 0.78v0c1.1 0 1.893-0.26 2.38-0.78 0.48-0.513 0.753-1.337 0.82-2.47v0c0.053-0.933 0.087-1.77 0.1-2.51 0.02-0.747 0.02-1.507 0-2.28-0.013-0.773-0.047-1.687-0.1-2.74v0c-0.033-1.233-0.203-2.27-0.51-3.11-0.307-0.84-0.943-1.387-1.91-1.64v0l-2.6-0.67c-1.287-0.32-2.27-0.8-2.95-1.44-0.687-0.64-1.16-1.487-1.42-2.54-0.26-1.047-0.413-2.337-0.46-3.87v0c-0.013-1.087-0.017-2.27-0.01-3.55 0.007-1.28 0.02-2.523 0.04-3.73v0c0.047-1.547 0.287-2.8 0.72-3.76 0.433-0.96 1.13-1.66 2.09-2.1 0.96-0.44 2.23-0.66 3.81-0.66v0c2.2 0 3.793 0.507 4.78 1.52 0.98 1.02 1.513 2.707 1.6 5.06v0c0.033 0.913 0.043 2.04 0.03 3.38-0.007 1.34-0.033 2.76-0.08 4.26v0h-3.2c0.047-1.367 0.073-2.727 0.08-4.08 0.013-1.36-0.007-2.713-0.06-4.06v0c-0.033-1.14-0.303-1.967-0.81-2.48-0.507-0.513-1.303-0.77-2.39-0.77v0c-1.133 0-1.94 0.257-2.42 0.77-0.487 0.513-0.763 1.34-0.83 2.48v0c-0.067 1.26-0.097 2.537-0.09 3.83 0.013 1.293 0.043 2.59 0.09 3.89v0c0.033 1.48 0.21 2.597 0.53 3.35 0.313 0.747 0.97 1.237 1.97 1.47v0l2.45 0.6c1.32 0.3 2.323 0.783 3.01 1.45 0.693 0.667 1.173 1.53 1.44 2.59 0.267 1.06 0.417 2.33 0.45 3.81v0c0.033 1.033 0.05 1.907 0.05 2.62 0 0.707-0.003 1.393-0.01 2.06-0.007 0.667-0.027 1.45-0.06 2.35v0c-0.087 2.347-0.63 4.033-1.63 5.06-1 1.027-2.623 1.54-4.87 1.54zM23.02 0h-3.29v-40h3.29v18.37h6.41v-18.37h3.3v40h-3.3v-18.65h-6.41zM49.3 0h-11.28v-40h11.28v3h-7.97v15.37h7.47v2.98h-7.47v15.65h7.97zM56.4 0h-3.3v-40h3.3zM65.08 0h-3.38v-40h3.5l-0.05 9.47-0.47 10.2h0.85l3.17-11.1 2.78-8.57h3.62l-5.95 17.9 6.58 22.1h-3.43l-5.27-18.13-1.95 5.23zM82.28 0h-3.3v-40h3.3v18.37h6.4v-18.37h3.3v40h-3.3v-18.65h-6.4z" fill="#3d3d3d" fill-rule="nonzero" stroke="none" stroke-width="1" stroke-linecap="butt" stroke-linejoin="miter" stroke-miterlimit="10" stroke-dasharray="" stroke-dashoffset="0" font-family="none" font-weight="none" font-size="none" text-anchor="none" style="mix-blend-mode: normal" data-fill-palette-color="primary" opacity="1"></path><path transform="translate(0,43.73)" d="M8.88 0.38v0c-2.287 0-3.927-0.513-4.92-1.54-0.987-1.027-1.507-2.707-1.56-5.04v0c-0.047-2.353-0.08-4.67-0.1-6.95-0.02-2.28-0.03-4.557-0.03-6.83 0-2.267 0.01-4.543 0.03-6.83 0.02-2.293 0.053-4.613 0.1-6.96v0c0.033-2.167 0.553-3.797 1.56-4.89 1.013-1.093 2.637-1.64 4.87-1.64v0c2.28 0 3.93 0.503 4.95 1.51 1.013 1.013 1.563 2.693 1.65 5.04v0c0.013 0.633 0.02 1.43 0.02 2.39 0 0.953-0.007 1.91-0.02 2.87-0.02 0.96-0.037 1.757-0.05 2.39v0h-3.3c0.013-0.853 0.023-1.747 0.03-2.68 0.013-0.933 0.02-1.87 0.02-2.81 0-0.94-0.01-1.827-0.03-2.66v0c-0.013-1.18-0.277-2.017-0.79-2.51-0.507-0.493-1.333-0.74-2.48-0.74v0c-1.067 0-1.843 0.247-2.33 0.74-0.48 0.493-0.737 1.33-0.77 2.51v0c-0.053 2.467-0.093 4.88-0.12 7.24-0.02 2.353-0.03 4.693-0.03 7.02 0 2.327 0.01 4.67 0.03 7.03 0.027 2.353 0.067 4.773 0.12 7.26v0c0.033 1.147 0.293 1.977 0.78 2.49 0.493 0.507 1.283 0.76 2.37 0.76v0c1.2 0 2.067-0.253 2.6-0.76 0.533-0.513 0.807-1.343 0.82-2.49v0c0.02-0.92 0.03-1.88 0.03-2.88 0-1-0.01-2-0.03-3-0.013-1-0.03-1.95-0.05-2.85v0h3.33c0.047 1.42 0.073 2.793 0.08 4.12 0.013 1.32 0.003 2.69-0.03 4.11v0c-0.087 2.333-0.65 4.013-1.69 5.04-1.04 1.027-2.727 1.54-5.06 1.54zM26.48 0.35v0c-2.32 0-3.983-0.503-4.99-1.51-1.007-1.013-1.537-2.677-1.59-4.99v0c-0.047-2.387-0.083-4.723-0.11-7.01-0.027-2.293-0.04-4.573-0.04-6.84 0-2.267 0.013-4.543 0.04-6.83 0.027-2.28 0.063-4.62 0.11-7.02v0c0.053-2.32 0.583-3.983 1.59-4.99 1.007-1.007 2.67-1.51 4.99-1.51v0c2.333 0 4.003 0.503 5.01 1.51 1.007 1.007 1.527 2.67 1.56 4.99v0c0.053 2.4 0.09 4.747 0.11 7.04 0.027 2.287 0.04 4.56 0.04 6.82 0 2.26-0.013 4.537-0.04 6.83-0.02 2.287-0.057 4.623-0.11 7.01v0c-0.033 2.313-0.553 3.977-1.56 4.99-1.007 1.007-2.677 1.51-5.01 1.51zM26.48-2.5v0c1.167 0 2-0.237 2.5-0.71 0.5-0.48 0.757-1.293 0.77-2.44v0c0.067-2.453 0.113-4.883 0.14-7.29 0.027-2.407 0.04-4.797 0.04-7.17 0-2.38-0.017-4.757-0.05-7.13-0.033-2.373-0.077-4.743-0.13-7.11v0c-0.013-1.153-0.277-1.97-0.79-2.45-0.507-0.48-1.333-0.72-2.48-0.72v0c-1.133 0-1.95 0.24-2.45 0.72-0.5 0.48-0.767 1.297-0.8 2.45v0c-0.067 2.367-0.117 4.737-0.15 7.11-0.033 2.373-0.047 4.75-0.04 7.13 0.007 2.373 0.027 4.763 0.06 7.17 0.033 2.407 0.077 4.837 0.13 7.29v0c0.033 1.147 0.3 1.96 0.8 2.44 0.5 0.473 1.317 0.71 2.45 0.71zM41.3 0h-3.2v-40h5.65l2.23 12.67 3.4 24.33h1.12l-0.57-22.85-0.23-14.15h3.25v40h-5.85l-2.5-14.35-2.85-22.65h-1.2l0.55 22.02zM64.23 0.35v0c-2.3 0-3.957-0.513-4.97-1.54-1.007-1.027-1.56-2.713-1.66-5.06v0c-0.013-1.033-0.02-1.977-0.02-2.83 0-0.847 0.007-1.7 0.02-2.56 0.02-0.86 0.047-1.807 0.08-2.84v0h3.17c-0.067 1.487-0.1 2.963-0.1 4.43 0 1.467 0.033 2.9 0.1 4.3v0c0.053 1.133 0.337 1.957 0.85 2.47 0.52 0.52 1.353 0.78 2.5 0.78v0c1.1 0 1.893-0.26 2.38-0.78 0.48-0.513 0.753-1.337 0.82-2.47v0c0.053-0.933 0.087-1.77 0.1-2.51 0.02-0.747 0.02-1.507 0-2.28-0.013-0.773-0.047-1.687-0.1-2.74v0c-0.033-1.233-0.203-2.27-0.51-3.11-0.307-0.84-0.943-1.387-1.91-1.64v0l-2.6-0.67c-1.287-0.32-2.27-0.8-2.95-1.44-0.687-0.64-1.16-1.487-1.42-2.54-0.253-1.047-0.407-2.337-0.46-3.87v0c-0.013-1.087-0.017-2.27-0.01-3.55 0.007-1.28 0.02-2.523 0.04-3.73v0c0.047-1.547 0.287-2.8 0.72-3.76 0.433-0.96 1.13-1.66 2.09-2.1 0.96-0.44 2.23-0.66 3.81-0.66v0c2.2 0 3.793 0.507 4.78 1.52 0.98 1.02 1.513 2.707 1.6 5.06v0c0.033 0.913 0.043 2.04 0.03 3.38-0.007 1.34-0.033 2.76-0.08 4.26v0h-3.2c0.047-1.367 0.073-2.727 0.08-4.08 0.013-1.36-0.007-2.713-0.06-4.06v0c-0.033-1.14-0.303-1.967-0.81-2.48-0.507-0.513-1.303-0.77-2.39-0.77v0c-1.133 0-1.94 0.257-2.42 0.77-0.487 0.513-0.763 1.34-0.83 2.48v0c-0.067 1.26-0.097 2.537-0.09 3.83 0.013 1.293 0.043 2.59 0.09 3.89v0c0.033 1.48 0.21 2.597 0.53 3.35 0.313 0.747 0.97 1.237 1.97 1.47v0l2.45 0.6c1.32 0.3 2.323 0.783 3.01 1.45 0.693 0.667 1.173 1.53 1.44 2.59 0.267 1.06 0.417 2.33 0.45 3.81v0c0.033 1.033 0.05 1.907 0.05 2.62 0 0.707-0.003 1.393-0.01 2.06-0.007 0.667-0.027 1.45-0.06 2.35v0c-0.087 2.347-0.63 4.033-1.63 5.06-1 1.027-2.623 1.54-4.87 1.54zM81.35 0h-3.32v-37h-5.1v-3h13.5v3h-5.08zM92.65 0h-3.3v-40h6.08c2.267 0 3.907 0.5 4.92 1.5 1.02 1 1.58 2.66 1.68 4.98v0c0.047 1.48 0.08 2.883 0.1 4.21 0.013 1.32 0.013 2.603 0 3.85-0.02 1.24-0.053 2.477-0.1 3.71v0c-0.053 1.613-0.337 2.9-0.85 3.86-0.52 0.96-1.32 1.64-2.4 2.04v0l4.02 15.85h-3.55l-3.67-15.28h-2.93zM92.65-37v18.72h2.75c1.133 0 1.953-0.263 2.46-0.79 0.513-0.54 0.793-1.383 0.84-2.53v0c0.053-1.32 0.087-2.657 0.1-4.01 0.02-1.36 0.02-2.717 0-4.07-0.013-1.347-0.047-2.68-0.1-4v0c-0.047-1.147-0.32-1.987-0.82-2.52-0.5-0.533-1.317-0.8-2.45-0.8v0zM112.93 0.35v0c-2.3 0-3.95-0.503-4.95-1.51-1-1.013-1.517-2.677-1.55-4.99v0c-0.067-5.633-0.1-11.277-0.1-16.93 0-5.647 0.033-11.287 0.1-16.92v0h3.3c-0.033 3.747-0.063 7.55-0.09 11.41-0.027 3.86-0.03 7.71-0.01 11.55 0.013 3.84 0.037 7.637 0.07 11.39v0c0 1.1 0.267 1.9 0.8 2.4 0.533 0.5 1.343 0.75 2.43 0.75v0c1.113 0 1.923-0.25 2.43-0.75 0.513-0.5 0.77-1.3 0.77-2.4v0c0.033-3.753 0.057-7.55 0.07-11.39 0.02-3.84 0.023-7.69 0.01-11.55-0.007-3.86-0.033-7.663-0.08-11.41v0h3.32c0.067 5.633 0.1 11.273 0.1 16.92 0 5.653-0.033 11.297-0.1 16.93v0c-0.033 2.313-0.55 3.977-1.55 4.99-1 1.007-2.657 1.51-4.97 1.51zM130.6 0.38v0c-2.28 0-3.917-0.513-4.91-1.54-0.993-1.027-1.513-2.707-1.56-5.04v0c-0.053-2.353-0.087-4.67-0.1-6.95-0.02-2.28-0.03-4.557-0.03-6.83 0-2.267 0.01-4.543 0.03-6.83 0.013-2.293 0.047-4.613 0.1-6.96v0c0.033-2.167 0.553-3.797 1.56-4.89 1.007-1.093 2.627-1.64 4.86-1.64v0c2.287 0 3.937 0.503 4.95 1.51 1.02 1.013 1.57 2.693 1.65 5.04v0c0.02 0.633 0.03 1.43 0.03 2.39 0 0.953-0.01 1.91-0.03 2.87-0.013 0.96-0.03 1.757-0.05 2.39v0h-3.3c0.02-0.853 0.033-1.747 0.04-2.68 0.007-0.933 0.01-1.87 0.01-2.81 0-0.94-0.007-1.827-0.02-2.66v0c-0.02-1.18-0.283-2.017-0.79-2.51-0.507-0.493-1.337-0.74-2.49-0.74v0c-1.067 0-1.84 0.247-2.32 0.74-0.487 0.493-0.747 1.33-0.78 2.51v0c-0.047 2.467-0.083 4.88-0.11 7.24-0.027 2.353-0.04 4.693-0.04 7.02 0 2.327 0.013 4.67 0.04 7.03 0.027 2.353 0.063 4.773 0.11 7.26v0c0.033 1.147 0.297 1.977 0.79 2.49 0.493 0.507 1.28 0.76 2.36 0.76v0c1.2 0 2.067-0.253 2.6-0.76 0.533-0.513 0.81-1.343 0.83-2.49v0c0.013-0.92 0.02-1.88 0.02-2.88 0-1-0.007-2-0.02-3-0.02-1-0.037-1.95-0.05-2.85v0h3.32c0.053 1.42 0.083 2.793 0.09 4.12 0.007 1.32-0.007 2.69-0.04 4.11v0c-0.08 2.333-0.643 4.013-1.69 5.04-1.04 1.027-2.727 1.54-5.06 1.54zM147.58 0h-3.33v-37h-5.1v-3h13.5v3h-5.07zM158.88 0h-3.3v-40h3.3zM170.53 0.35v0c-2.32 0-3.983-0.503-4.99-1.51-1.007-1.013-1.537-2.677-1.59-4.99v0c-0.047-2.387-0.083-4.723-0.11-7.01-0.027-2.293-0.04-4.573-0.04-6.84 0-2.267 0.013-4.543 0.04-6.83 0.027-2.28 0.063-4.62 0.11-7.02v0c0.053-2.32 0.583-3.983 1.59-4.99 1.007-1.007 2.67-1.51 4.99-1.51v0c2.333 0 4.003 0.503 5.01 1.51 1.007 1.007 1.527 2.67 1.56 4.99v0c0.053 2.4 0.09 4.747 0.11 7.04 0.027 2.287 0.04 4.56 0.04 6.82 0 2.26-0.013 4.537-0.04 6.83-0.02 2.287-0.057 4.623-0.11 7.01v0c-0.033 2.313-0.553 3.977-1.56 4.99-1.007 1.007-2.677 1.51-5.01 1.51zM170.53-2.5v0c1.167 0 2-0.237 2.5-0.71 0.5-0.48 0.757-1.293 0.77-2.44v0c0.067-2.453 0.113-4.883 0.14-7.29 0.02-2.407 0.03-4.797 0.03-7.17 0-2.38-0.013-4.757-0.04-7.13-0.033-2.373-0.077-4.743-0.13-7.11v0c-0.013-1.153-0.277-1.97-0.79-2.45-0.507-0.48-1.333-0.72-2.48-0.72v0c-1.133 0-1.95 0.24-2.45 0.72-0.5 0.48-0.767 1.297-0.8 2.45v0c-0.067 2.367-0.117 4.737-0.15 7.11-0.033 2.373-0.047 4.75-0.04 7.13 0.007 2.373 0.027 4.763 0.06 7.17 0.033 2.407 0.077 4.837 0.13 7.29v0c0.033 1.147 0.3 1.96 0.8 2.44 0.5 0.473 1.317 0.71 2.45 0.71zM185.35 0h-3.2v-40h5.65l2.23 12.67 3.4 24.33h1.12l-0.58-22.85-0.22-14.15h3.25v40h-5.85l-2.5-14.35-2.85-22.65h-1.2l0.55 22.02z" fill="#3d3d3d" fill-rule="nonzero" stroke="none" stroke-width="1" stroke-linecap="butt" stroke-linejoin="miter" stroke-miterlimit="10" stroke-dasharray="" stroke-dashoffset="0" font-family="none" font-weight="none" font-size="none" text-anchor="none" style="mix-blend-mode: normal" data-fill-palette-color="primary" opacity="1"></path><path transform="translate(0,87.45)" d="M4.5 0h-3.4l4.28-40h6.2l4.25 40h-3.38l-1.05-11.6h-5.87zM6.65-23.33l-0.8 8.73h5.23l-0.78-8.75-1.12-13.65h-1.4zM22.78 0h-3.2v-40h5.65l2.22 12.67 3.4 24.33h1.13l-0.58-22.85-0.22-14.15h3.24v40h-5.84l-2.5-14.35-2.85-22.65h-1.2l0.55 22.02zM46.08 0h-6.35v-40h6.4c2.3 0 3.96 0.517 4.98 1.55 1.027 1.033 1.557 2.733 1.59 5.1v0c0.053 3.167 0.087 6.183 0.1 9.05 0.02 2.867 0.02 5.73 0 8.59-0.013 2.853-0.047 5.863-0.1 9.03v0c-0.033 2.387-0.567 4.097-1.6 5.13-1.033 1.033-2.707 1.55-5.02 1.55zM43.03-37v34h3.05c1.147 0 1.98-0.27 2.5-0.81 0.513-0.547 0.78-1.393 0.8-2.54v0c0.047-2.287 0.08-4.567 0.1-6.84 0.013-2.273 0.02-4.547 0.02-6.82 0-2.28-0.007-4.557-0.02-6.83-0.02-2.273-0.053-4.553-0.1-6.84v0c-0.02-1.147-0.287-1.987-0.8-2.52-0.52-0.533-1.337-0.8-2.45-0.8v0z" fill="#3d3d3d" fill-rule="nonzero" stroke="none" stroke-width="1" stroke-linecap="butt" stroke-linejoin="miter" stroke-miterlimit="10" stroke-dasharray="" stroke-dashoffset="0" font-family="none" font-weight="none" font-size="none" text-anchor="none" style="mix-blend-mode: normal" data-fill-palette-color="primary" opacity="1"></path><path transform="translate(0,131.18)" d="M5.95 0h-3.3v-40h6.07c2.273 0 3.917 0.5 4.93 1.5 1.02 1 1.58 2.66 1.68 4.98v0c0.047 1.48 0.08 2.883 0.1 4.21 0.013 1.32 0.013 2.603 0 3.85-0.02 1.24-0.053 2.477-0.1 3.71v0c-0.053 1.613-0.337 2.9-0.85 3.86-0.52 0.96-1.32 1.64-2.4 2.04v0l4.02 15.85h-3.55l-3.67-15.28h-2.93zM5.95-37v18.72h2.75c1.133 0 1.953-0.263 2.46-0.79 0.513-0.54 0.793-1.383 0.84-2.53v0c0.053-1.32 0.087-2.657 0.1-4.01 0.02-1.36 0.02-2.717 0-4.07-0.013-1.347-0.047-2.68-0.1-4v0c-0.047-1.147-0.32-1.987-0.82-2.52-0.5-0.533-1.32-0.8-2.46-0.8v0zM31.35 0h-11.27v-40h11.27v3h-7.97v15.37h7.47v2.98h-7.47v15.65h7.97zM38.35 0h-3.2v-40h5.65l2.22 12.67 3.4 24.33h1.13l-0.57-22.85-0.23-14.15h3.25v40h-5.85l-2.5-14.35-2.85-22.65h-1.2l0.55 22.02zM61.65 0.35v0c-2.313 0-3.977-0.503-4.99-1.51-1.007-1.013-1.533-2.677-1.58-4.99v0c-0.053-2.387-0.093-4.723-0.12-7.01-0.02-2.293-0.03-4.573-0.03-6.84 0-2.267 0.01-4.543 0.03-6.83 0.027-2.28 0.067-4.62 0.12-7.02v0c0.047-2.32 0.573-3.983 1.58-4.99 1.013-1.007 2.677-1.51 4.99-1.51v0c2.333 0 4.003 0.503 5.01 1.51 1.013 1.007 1.537 2.67 1.57 4.99v0c0.047 2.4 0.083 4.747 0.11 7.04 0.027 2.287 0.04 4.56 0.04 6.82 0 2.26-0.013 4.537-0.04 6.83-0.027 2.287-0.063 4.623-0.11 7.01v0c-0.033 2.313-0.557 3.977-1.57 4.99-1.007 1.007-2.677 1.51-5.01 1.51zM61.65-2.5v0c1.167 0 2-0.237 2.5-0.71 0.5-0.48 0.76-1.293 0.78-2.44v0c0.067-2.453 0.11-4.883 0.13-7.29 0.027-2.407 0.04-4.797 0.04-7.17 0-2.38-0.017-4.757-0.05-7.13-0.033-2.373-0.073-4.743-0.12-7.11v0c-0.02-1.153-0.283-1.97-0.79-2.45-0.507-0.48-1.337-0.72-2.49-0.72v0c-1.133 0-1.95 0.24-2.45 0.72-0.5 0.48-0.767 1.297-0.8 2.45v0c-0.067 2.367-0.117 4.737-0.15 7.11-0.033 2.373-0.047 4.75-0.04 7.13 0.013 2.373 0.037 4.763 0.07 7.17 0.033 2.407 0.073 4.837 0.12 7.29v0c0.033 1.147 0.3 1.96 0.8 2.44 0.5 0.473 1.317 0.71 2.45 0.71zM81.65 0h-6.23l-4.19-40h3.44l2.18 22.27 1.03 14.73h1.35l1-14.73 2.17-22.27h3.5zM90.8 0h-3.4l4.28-40h6.2l4.25 40h-3.38l-1.05-11.6h-5.87zM92.95-23.33l-0.8 8.73h5.23l-0.78-8.75-1.12-13.65h-1.4zM110.55 0h-3.32v-37h-5.1v-3h13.5v3h-5.08zM121.85 0h-3.3v-40h3.3zM133.5 0.35v0c-2.313 0-3.977-0.503-4.99-1.51-1.007-1.013-1.533-2.677-1.58-4.99v0c-0.053-2.387-0.093-4.723-0.12-7.01-0.02-2.293-0.03-4.573-0.03-6.84 0-2.267 0.01-4.543 0.03-6.83 0.027-2.28 0.067-4.62 0.12-7.02v0c0.047-2.32 0.573-3.983 1.58-4.99 1.013-1.007 2.677-1.51 4.99-1.51v0c2.333 0 4.003 0.503 5.01 1.51 1.013 1.007 1.537 2.67 1.57 4.99v0c0.047 2.4 0.083 4.747 0.11 7.04 0.027 2.287 0.04 4.56 0.04 6.82 0 2.26-0.013 4.537-0.04 6.83-0.027 2.287-0.063 4.623-0.11 7.01v0c-0.033 2.313-0.557 3.977-1.57 4.99-1.007 1.007-2.677 1.51-5.01 1.51zM133.5-2.5v0c1.167 0 2-0.237 2.5-0.71 0.5-0.48 0.76-1.293 0.78-2.44v0c0.067-2.453 0.11-4.883 0.13-7.29 0.027-2.407 0.04-4.797 0.04-7.17 0-2.38-0.017-4.757-0.05-7.13-0.033-2.373-0.073-4.743-0.12-7.11v0c-0.02-1.153-0.283-1.97-0.79-2.45-0.507-0.48-1.337-0.72-2.49-0.72v0c-1.133 0-1.95 0.24-2.45 0.72-0.5 0.48-0.767 1.297-0.8 2.45v0c-0.067 2.367-0.117 4.737-0.15 7.11-0.033 2.373-0.047 4.75-0.04 7.13 0.013 2.373 0.037 4.763 0.07 7.17 0.033 2.407 0.073 4.837 0.12 7.29v0c0.033 1.147 0.3 1.96 0.8 2.44 0.5 0.473 1.317 0.71 2.45 0.71zM148.33 0h-3.2v-40h5.65l2.22 12.67 3.4 24.33h1.13l-0.58-22.85-0.22-14.15h3.25v40h-5.85l-2.5-14.35-2.85-22.65h-1.2l0.55 22.02z" fill="#3d3d3d" fill-rule="nonzero" stroke="none" stroke-width="1" stroke-linecap="butt" stroke-linejoin="miter" stroke-miterlimit="10" stroke-dasharray="" stroke-dashoffset="0" font-family="none" font-weight="none" font-size="none" text-anchor="none" style="mix-blend-mode: normal" data-fill-palette-color="primary" opacity="1"></path></g></svg></g></svg></g></svg></g></svg></g><g transform="matrix(1,0,0,1,0,15.869776157804452)"><svg viewBox="0 0 169.26044768439107 169.26044768439107" height="169.26044768439107" width="169.26044768439107"><g><svg xmlns="http://www.w3.org/2000/svg" xmlns:xlink="http://www.w3.org/1999/xlink" version="1.1" x="0" y="0" viewBox="0 0 100 100" enable-background="new 0 0 100 100" xml:space="preserve" height="169.26044768439107" width="169.26044768439107" class="icon-icon-0" data-fill-palette-color="accent" id="icon-0"><g fill="#556b3f" data-fill-palette-color="accent"><rect x="33" y="92" fill="#556b3f" width="35" height="3" data-fill-palette-color="accent"></rect></g><g fill="#556b3f" data-fill-palette-color="accent"><rect x="47" y="87" width="7" height="4" fill="#556b3f" data-fill-palette-color="accent"></rect><rect x="36" y="89" width="10" height="2" fill="#556b3f" data-fill-palette-color="accent"></rect><rect x="55" y="89" width="10" height="2" fill="#556b3f" data-fill-palette-color="accent"></rect><rect x="45" y="73" width="1" height="15" fill="#556b3f" data-fill-palette-color="accent"></rect><rect x="47" y="46" width="1" height="13" fill="#556b3f" data-fill-palette-color="accent"></rect><polygon points="47,86 48,86 48,60 47,60 46,60 46,72 47,72  " fill="#556b3f" data-fill-palette-color="accent"></polygon><rect x="50" y="5" width="1" height="13" fill="#556b3f" data-fill-palette-color="accent"></rect><rect x="55" y="76" width="1" height="12" fill="#556b3f" data-fill-palette-color="accent"></rect><rect x="49" y="46" width="1" height="40" fill="#556b3f" data-fill-palette-color="accent"></rect><rect x="53" y="51" width="1" height="12" fill="#556b3f" data-fill-palette-color="accent"></rect><polygon points="55,64 54,64 53,64 53,86 54,86 54,75 55,75  " fill="#556b3f" data-fill-palette-color="accent"></polygon><rect x="51" y="51" width="1" height="35" fill="#556b3f" data-fill-palette-color="accent"></rect><polygon points="51,35 51,50 52,50 53,50 53,35 52,35  " fill="#556b3f" data-fill-palette-color="accent"></polygon><rect x="51" y="20" width="1" height="14" fill="#556b3f" data-fill-palette-color="accent"></rect><rect x="49" y="19" width="1" height="10" fill="#556b3f" data-fill-palette-color="accent"></rect><polygon points="50,45 50,30 49,30 48,30 48,45 49,45  " fill="#556b3f" data-fill-palette-color="accent"></polygon><polygon points="44,88 44,86 42,86 42,87 41,87 41,88 42,88  " fill="#556b3f" data-fill-palette-color="accent"></polygon><polygon points="60,88 60,87 59,87 59,86 57,86 57,88 59,88  " fill="#556b3f" data-fill-palette-color="accent"></polygon></g></svg></g></svg></g></svg></g><defs></defs></svg><rect width="395.52" height="190.13652104014852" fill="none" stroke="none" visibility="hidden"></rect></g></svg></g></svg>